<?xml version="1.0" encoding="utf-8"?>
<!-- Generator: Adobe Illustrator 26.0.2, SVG Export Plug-In . SVG Version: 6.00 Build 0)  -->
<svg version="1.1" id="Capa_1" xmlns="http://www.w3.org/2000/svg" xmlns:xlink="http://www.w3.org/1999/xlink" x="0px" y="0px"
	 viewBox="0 0 500 500" style="enable-background:new 0 0 500 500;" xml:space="preserve">
<style type="text/css">
	.st0{fill:#FFFFFF;}
	.st1{fill-rule:evenodd;clip-rule:evenodd;fill:#FFFFFF;}
</style>
<g>
	<g>
		<path class="st0" d="M250,71.8c-98.4,0-178.2,79.8-178.2,178.2c0,98.4,79.8,178.2,178.2,178.2S428.2,348.4,428.2,250
			C428.2,151.6,348.4,71.8,250,71.8z M250,134.4l105.5,65.8H144.5L250,134.4z M356.8,305.2L356.8,305.2c0,10.5-8.6,19.1-19.1,19.1
			H162.3c-10.5,0-19.1-8.5-19.1-19.1V204.3c0-1.1,0.1-2.2,0.3-3.3l100.8,62.8c0.1,0.1,0.3,0.1,0.4,0.2c0.1,0.1,0.3,0.1,0.4,0.2
			c0.7,0.4,1.4,0.7,2.2,0.9c0.1,0,0.2,0,0.2,0c0.8,0.2,1.7,0.3,2.5,0.3h0c0,0,0,0,0,0c0.8,0,1.7-0.1,2.5-0.3c0.1,0,0.2,0,0.2,0
			c0.7-0.2,1.5-0.5,2.2-0.9c0.1-0.1,0.3-0.1,0.4-0.2c0.1-0.1,0.3-0.1,0.4-0.2l100.8-62.8c0.2,1.1,0.3,2.1,0.3,3.3L356.8,305.2
			L356.8,305.2z"/>
	</g>
</g>
</svg>
