<?xml version="1.0" encoding="utf-8"?>
<!-- Generator: Adobe Illustrator 26.0.2, SVG Export Plug-In . SVG Version: 6.00 Build 0)  -->
<svg version="1.1" id="Capa_1" xmlns="http://www.w3.org/2000/svg" xmlns:xlink="http://www.w3.org/1999/xlink" x="0px" y="0px"
	 viewBox="0 0 500 500" style="enable-background:new 0 0 500 500;" xml:space="preserve">
<style type="text/css">
	.st0{fill:#FFFFFF;}
	.st1{fill-rule:evenodd;clip-rule:evenodd;fill:#FFFFFF;}
</style>
<g id="brand_00000018950926249634889390000004382216677727570323_">
	<g id="github_00000144334166043582721650000017795174943360165027_">
		<path id="Shape_00000060712212338229622190000006380809468742348419_" class="st1" d="M250,76.2c-98.5,0-178.2,79.7-178.2,178.2
			c0,78.9,51,145.5,121.8,169.1c8.9,1.6,12.3-3.8,12.3-8.5c0-4.2-0.2-18.3-0.2-33.2c-44.8,8.2-56.4-10.9-59.9-20.9
			c-2-5.1-10.7-20.9-18.3-25.2c-6.2-3.3-15.1-11.6-0.2-11.8c14-0.2,24.1,12.9,27.4,18.3c16,27,41.7,19.4,51.9,14.7
			c1.6-11.6,6.2-19.4,11.4-23.8c-39.6-4.5-81.1-19.8-81.1-88c0-19.4,6.9-35.4,18.3-47.9c-1.8-4.5-8-22.7,1.8-47.2
			c0,0,14.9-4.7,49,18.3c14.3-4,29.4-6,44.6-6c15.1,0,30.3,2,44.6,6c34.1-23.2,49-18.3,49-18.3c9.8,24.5,3.6,42.8,1.8,47.2
			c11.4,12.5,18.3,28.3,18.3,47.9c0,68.4-41.7,83.5-81.3,88c6.5,5.6,12,16.3,12,33c0,23.8-0.2,43-0.2,49c0,4.7,3.3,10.2,12.3,8.5
			c70.4-23.6,121.4-90.4,121.4-169.1C428.2,155.9,348.5,76.2,250,76.2L250,76.2z"/>
	</g>
</g>
</svg>
