<?xml version="1.0" encoding="utf-8"?>
<!-- Generator: Adobe Illustrator 26.0.2, SVG Export Plug-In . SVG Version: 6.00 Build 0)  -->
<svg version="1.1" id="Capa_1" xmlns="http://www.w3.org/2000/svg" xmlns:xlink="http://www.w3.org/1999/xlink" x="0px" y="0px"
	 viewBox="0 0 500 500" style="enable-background:new 0 0 500 500;" xml:space="preserve">
<style type="text/css">
	.st0{fill:#FFFFFF;}
</style>
<g>
	<path class="st0" d="M250,71.8c-98.4,0-178.2,79.8-178.2,178.2c0,98.4,79.8,178.2,178.2,178.2S428.2,348.4,428.2,250
		C428.2,151.6,348.4,71.8,250,71.8z M202.9,337.8h-42.6V209.7h42.6V337.8z M181.6,192.1h-0.3c-14.2,0-23.5-9.8-23.5-22.1
		c0-12.5,9.5-22.1,24.1-22.1c14.6,0,23.5,9.6,23.8,22.1C205.7,182.3,196.5,192.1,181.6,192.1z M356.5,337.8h-42.6v-68.5
		c0-17.2-6.1-29-21.6-29c-11.8,0-18.8,7.9-21.8,15.6c-1.1,2.7-1.4,6.5-1.4,10.4v71.6h-42.6c0,0,0.6-116.1,0-128.1h42.6V228
		c5.7-8.7,15.8-21.2,38.4-21.2c28-0.1,49,18.2,49,57.5V337.8z M269.1,228.4V228c-0.1,0.1-0.2,0.3-0.3,0.4H269.1z"/>
</g>
</svg>
