<?xml version="1.0" encoding="utf-8"?>
<!-- Generator: Adobe Illustrator 26.0.2, SVG Export Plug-In . SVG Version: 6.00 Build 0)  -->
<svg version="1.1" id="Capa_1" xmlns="http://www.w3.org/2000/svg" xmlns:xlink="http://www.w3.org/1999/xlink" x="0px" y="0px"
	 viewBox="0 0 500 500" style="enable-background:new 0 0 500 500;" xml:space="preserve">
<style type="text/css">
	.st0{fill:#FFFFFF;}
	.st1{fill-rule:evenodd;clip-rule:evenodd;fill:#FFFFFF;}
</style>
<g>
	<path class="st0" d="M441.2,194c-3.4-11-11.7-17.3-23.3-17.4c-12.2-0.1-24.4,0-36.7,0h-4.4v-4.8c0-28.9,0-57.9,0-86.8
		c0-9.4-4.2-13.6-13.7-13.6c-57,0-114,0-171-0.1c-5,0-8.8,1.5-12.3,5c-22.7,22.8-45.4,45.6-68.3,68.3c-3.3,3.3-4.8,7-4.8,11.6
		c0.1,34.4,0,68.9,0,103.3v4.7c-1.2,0.1-2.1,0.2-3.1,0.3c-7.5,0.2-12,4.7-12,12.3c0,24.1,0,48.2,0,72.2v4.6c-6.7,0-13.1,0.1-19.5,0
		c-5.3-0.1-9.6,1.2-12.1,6.2c-2.6,5.2-0.8,9.5,2.6,13.7c20.1,24.7,40,49.4,60.2,74c2.2,2.7,5.2,4.8,7.9,7.1h6
		c5.4-2.2,8.2-7.1,11.6-11.2c3.1-3.6,5.4-8.8,9.2-10.6c4-1.9,9.5-0.6,14.4-0.6c63.7,0,127.5,0,191.2,0c9.7,0,13.8-4.1,13.8-13.9v-95
		h13.8c8.7,0,17.5,0,26.2,0c12.8,0,20.7-5.9,24.6-18.2c0.1-0.3,0.4-0.6,0.6-0.9V195.6C441.7,195.1,441.4,194.6,441.2,194z
		 M177.9,111.9v30.6h-31.2C157.2,132.3,167.8,121.9,177.9,111.9z M354.2,409.5H176c0.8-1.1,1.3-1.9,2-2.8
		c9.1-11.3,18.2-22.5,27.3-33.7c3.3-4,4.6-8.3,2.3-13.2c-2.3-4.8-6.5-6.5-11.7-6.4c-6.5,0.2-13,0-20.1,0v-4.5c0-23.6,0-47.2,0-70.8
		c0-9.8-4-13.8-13.8-13.8c-9.6,0-19.2,0-28.8,0c-1.2,0-2.4-0.1-3.8-0.2v-99.1h4.4c18,0,35.9,0,53.9,0c8.8,0,13-4.3,13-13.2
		c0-17.7,0-35.4,0-53.2v-4.8h153.3v82.5h-4.8c-43.5,0-87.1,0-130.6,0c-12.1,0-21.3,6.6-24,17.4c-0.7,2.7-0.9,5.7-0.9,8.5
		c-0.1,31.6-0.1,63.1,0,94.7c0,16.5,9.6,26.1,26,26.1c43.2,0,86.3,0,129.5,0h4.9V409.5z M419.5,296.6v4c-1.8,0.1-3.2,0.2-4.7,0.2
		c-64.6,0-129.2,0-193.8,0c-4.8,0-4.8,0-4.8-4.9c0-30.7,0.1-61.4-0.1-92.1c0-3.6,0.7-4.9,4.7-4.9c64.7,0.1,129.4,0.1,194.2,0
		c3.5,0,4.7,0.7,4.7,4.5C419.5,234.5,419.5,265.5,419.5,296.6z"/>
	<path class="st0" d="M294.9,249.5c0-5.5,0-11.1,0-16.6C294.9,238.5,294.9,244,294.9,249.5c0,2.6,0,5.1,0,7.7
		C294.9,254.7,294.9,252.1,294.9,249.5z"/>
	<path class="st0" d="M348.4,233.9c-4.5-13.8-14.9-21.3-29.5-21.6c-4.7-0.1-9.5,0-14.2,0c-7.2,0-9.8,2.6-9.8,9.6c0,3.7,0,7.4,0,11.1
		c0,5.5,0,11.1,0,16.6c0,2.6,0,5.1,0,7.7c0,6.8,0,13.6,0,20.4c0.1,7,2.7,9.5,9.6,9.5c4.9,0,9.7,0,14.6-0.1
		c11.4-0.1,20.2-5.2,26-14.9C352.3,260,352.7,247,348.4,233.9z M333.6,262c-2.8,6.6-7.7,10.2-15.1,10c-2.6-0.1-5.2,0-8.3,0v-45.1
		c4.8,0.3,9.5,0.2,13.9,1.1c4.7,0.9,7.7,4.5,9.5,8.8C336.9,245.2,337,253.7,333.6,262z"/>
	<path class="st0" d="M263,212.8c-6-0.8-12.2-0.5-18.3-0.5c-7.1,0-9.7,2.6-9.7,9.7c0,10.9,0,21.7,0,32.5c0,8.1-0.1,16.2,0,24.3
		c0.1,4.4,2.3,7.4,5.8,8.1c4.8,1,8.9-2.2,9-7.4c0.2-6,0-11.9,0-18.6c4.1,0,7.6,0.2,11.1,0c12.6-0.8,22.4-10.9,22.9-23.4
		C284.4,225.4,275.4,214.3,263,212.8z M268.9,237.2c-0.4,4.4-3.8,8.2-8.4,8.6c-3.3,0.3-6.6,0.1-10.2,0.1V227
		c3.9,0.2,7.7,0.1,11.3,0.7C266.1,228.6,269.2,233,268.9,237.2z"/>
	<path class="st0" d="M398.8,249.1c0,3.9-2.5,6.8-6.5,7.4c-1.6,0.2-3.2,0.2-4.9,0.2c-3.5,0-6.9,0-10.8,0c0,6.6,0,12.8,0,19
		c0,1.7,0,3.5-0.3,5.2c-0.7,4-3.7,6.3-7.6,6.2c-3.8-0.2-6.8-2.9-6.9-6.9c-0.2-5.1-0.1-10.2-0.1-15.3c0-14.3,0-28.7,0-43
		c0-7.1,2.6-9.6,9.8-9.6c7.2,0,14.4-0.1,21.7,0.1c4.1,0.1,7.1,2.8,7.6,6.4c0.5,3.4-1.5,7-4.7,8c-1.4,0.5-2.9,0.5-4.4,0.5
		c-4.8,0.1-9.7,0-14.7,0v14.6c5.2,0,10.3-0.2,15.3,0.1C396.2,242.1,398.8,245.3,398.8,249.1z"/>
</g>
</svg>
