<?xml version="1.0" encoding="utf-8"?>
<!-- Generator: Adobe Illustrator 26.0.2, SVG Export Plug-In . SVG Version: 6.00 Build 0)  -->
<svg version="1.1" id="Capa_1" xmlns="http://www.w3.org/2000/svg" xmlns:xlink="http://www.w3.org/1999/xlink" x="0px" y="0px"
	 viewBox="0 0 500 500" style="enable-background:new 0 0 500 500;" xml:space="preserve">
<style type="text/css">
	.st0{fill:#243140;}
	.st1{fill-rule:evenodd;clip-rule:evenodd;fill:#243140;}
</style>
<g>
	<path class="st0" d="M448.5,312.2c0-5.2-3-9.7-7.2-12.1v-64l0,0c12.5-6.1,12.5-23.9,0-30l-184-89.9c-4.6-2.3-10-2.3-14.6,0
		l-184,89.9c-12.5,6.1-12.5,23.9,0,30l69,33.7v51.3c0,17.3,9.4,33.4,24.6,41.7c20.9,11.4,54.6,24.5,99.3,24.5
		c44.2,0,76.6-12.8,96.6-24.1c14.9-8.4,24.1-24.3,24.1-41.4v-52l54.8-26.8v57c-4.2,2.5-7.2,6.9-7.2,12.1c0,4.7,2.4,8.6,5.8,11.2
		l-5.1,28.2c-1.5,8.5,5,16.4,13.7,16.4h0c8.7,0,15.2-7.8,13.7-16.4l-5.1-28.2C446.2,320.8,448.5,316.9,448.5,312.2z"/>
</g>
</svg>
