<?xml version="1.0" encoding="utf-8"?>
<!-- Generator: Adobe Illustrator 26.0.2, SVG Export Plug-In . SVG Version: 6.00 Build 0)  -->
<svg version="1.1" id="Capa_1" xmlns="http://www.w3.org/2000/svg" xmlns:xlink="http://www.w3.org/1999/xlink" x="0px" y="0px"
	 viewBox="-20 -10 545 545" style="enable-background:new 0 0 500 500;" xml:space="preserve">
<style type="text/css">
	.st0{fill:#243140;}
	.st1{fill-rule:evenodd;clip-rule:evenodd;fill:#243140;}
</style>
<g>
	<path class="st0" d="M243.3,313.7h20.1c13.4,0,16.8-5.7,16.8-16.8v-33.5H441v-97.2c0-11.1-9-20.1-20.1-20.1h-55.3v-23.5
		c0-18.5-15-33.5-33.5-33.5H167.9c-18.5,0-33.5,15-33.5,33.5v23.5H79.1c-11.1,0-20.1,9-20.1,20.1v97.2h167.5v33.5
		C226.5,308,229.9,313.7,243.3,313.7z M161.2,146.1v-23.5c0-3.7,3-6.7,6.7-6.7h164.2c3.7,0,6.7,3,6.7,6.7v23.5
		C338.8,146.1,161.2,146.1,161.2,146.1z"/>
	<path class="st0" d="M441,390.7V286.9H300.3V317c0,11.1-9,20.1-20.1,20.1h-57c-11.1,0-20.1-9-20.1-20.1v-30.2H59v103.9
		c0,11.1,9,20.1,20.1,20.1h341.7C432,410.8,441,401.8,441,390.7z"/>
</g>
</svg>
